<svg width="19" height="17" viewBox="0 0 19 17" fill="none" xmlns="http://www.w3.org/2000/svg">
<path d="M1.64264 1.73233C2.61451 0.760696 3.91802 0.192387 5.29162 0.141442C6.66521 0.0904965 8.00727 0.560684 9.0485 1.45766C10.0888 0.562179 11.4291 0.0925197 12.801 0.142707C14.173 0.192895 15.4753 0.759225 16.4474 1.72832C17.4194 2.69741 17.9894 3.99775 18.0432 5.369C18.097 6.74025 17.6306 8.08121 16.7375 9.12342L10.2323 15.6469C9.93338 15.9458 9.53254 16.1207 9.11009 16.1365C8.68764 16.1524 8.27481 16.008 7.95437 15.7324L7.86222 15.6478L1.3578 9.12342C0.465154 8.08211 -0.00140614 6.74238 0.0514028 5.37209C0.104212 4.00179 0.672498 2.70191 1.64264 1.73233ZM2.82724 2.91645C2.14215 3.60145 1.74724 4.52383 1.72447 5.49217C1.70169 6.4605 2.0528 7.40041 2.70493 8.11684L2.82724 8.2458L9.04766 14.4637L13.4903 10.022L10.5288 7.06169L9.6408 7.94935C9.40745 8.18272 9.13041 8.36785 8.82548 8.49418C8.52056 8.62052 8.19373 8.68558 7.86365 8.68566C7.19703 8.68582 6.55764 8.42126 6.08616 7.95019C5.61467 7.47912 5.3497 6.84013 5.34955 6.17378C5.34939 5.50742 5.61405 4.8683 6.08532 4.39701L7.8463 2.63591C7.14548 2.07683 6.26829 1.78567 5.37212 1.81467C4.47594 1.84368 3.61943 2.19095 2.95626 2.79418L2.82724 2.91645ZM9.93653 5.28468C10.0936 5.12769 10.3067 5.03949 10.5288 5.03949C10.751 5.03949 10.964 5.12769 11.1211 5.28468L14.6749 8.83702L15.2681 8.2458C15.9646 7.55002 16.3612 6.60941 16.3729 5.62514C16.3847 4.64087 16.0107 3.69108 15.3309 2.97888C14.6512 2.26669 13.7196 1.84863 12.7355 1.81411C11.7513 1.7796 10.7927 2.13136 10.0647 2.79418L9.93653 2.91645L7.27076 5.58113C7.12555 5.72618 7.03867 5.91948 7.02663 6.12433C7.01458 6.32918 7.0782 6.53133 7.20541 6.69239L7.27076 6.76524C7.41587 6.91039 7.60925 6.99723 7.81419 7.00927C8.01912 7.02131 8.22135 6.95772 8.38247 6.83056L8.45536 6.76524L9.93653 5.28468Z" fill="#212529"/>
</svg>
