<svg width="124" height="25" viewBox="0 0 124 25" fill="none" xmlns="http://www.w3.org/2000/svg">
<path d="M3.248 24V0.447998H0.24V24H3.248ZM10.684 24V15.712C10.684 12.672 12.316 10.656 15.132 10.656C17.436 10.656 18.908 11.936 18.908 15.104V24H21.916V14.432C21.916 10.432 20.028 7.904 15.9 7.904C13.692 7.904 11.708 8.96 10.716 10.752L10.396 8.352H7.676V24H10.684ZM25.0583 16.192C25.0583 21.12 28.0983 24.384 32.7063 24.384C36.4823 24.384 39.3943 22.112 40.0023 18.72H36.9943C36.4503 20.576 34.8503 21.696 32.7063 21.696C29.8583 21.696 28.0343 19.52 28.0343 16.16C28.0343 12.768 29.9863 10.592 32.8343 10.592C34.8503 10.592 36.4503 11.648 36.9623 13.632H39.9703C39.4263 10.144 36.6743 7.904 32.7383 7.904C28.1623 7.904 25.0583 11.296 25.0583 16.192ZM45.896 24L46.12 21.152C47.144 23.296 49.224 24.384 51.688 24.384C56.232 24.384 59.048 20.992 59.048 16.256C59.048 11.424 56.36 7.904 51.88 7.904C49.32 7.904 47.208 8.992 46.184 11.04V0.447998H43.176V24H45.896ZM46.216 16.128C46.216 12.928 48.072 10.624 51.144 10.624C54.216 10.624 56.04 12.928 56.04 16.128C56.04 19.36 54.216 21.664 51.144 21.664C48.072 21.664 46.216 19.392 46.216 16.128ZM65.4355 24V0.447998H62.4275V24H65.4355ZM78.8235 8.224C78.2155 8.096 77.7675 8.032 77.2235 8.032C75.0795 8.032 73.5115 9.12 72.8715 10.752L72.6795 8.384H69.8635V24H72.8715V15.712C72.8715 12.704 74.6315 10.976 77.4795 10.976H78.8235V8.224ZM84.6528 24V14.72C84.6528 12.224 86.1568 10.656 88.4288 10.656C90.5408 10.656 91.8848 12 91.8848 14.464V24H94.8608V14.72C94.8608 12.224 96.3647 10.624 98.6368 10.624C100.749 10.624 102.125 12.032 102.125 14.496V24H105.069V13.76C105.069 10.144 102.893 7.904 99.3088 7.904C96.8768 7.904 94.9888 9.12 94.2528 11.072C93.4528 9.12 91.7248 7.904 89.2928 7.904C87.0848 7.904 85.4208 8.928 84.6208 10.4L84.3328 8.352H81.6448V24H84.6528ZM112.247 24V15.712C112.247 12.672 113.879 10.656 116.695 10.656C118.999 10.656 120.471 11.936 120.471 15.104V24H123.479V14.432C123.479 10.432 121.591 7.904 117.463 7.904C115.255 7.904 113.271 8.96 112.279 10.752L111.959 8.352H109.239V24H112.247Z" fill="#212529"/>
</svg>
