<svg width="30" height="30" viewBox="0 0 30 30" fill="none" xmlns="http://www.w3.org/2000/svg">
<g clip-path="url(#clip0_633_230)">
<path d="M12.3494 21.7776C11.0272 22.3202 9.54446 22.3202 8.22224 21.7776C7.67967 20.4554 7.67967 18.9727 8.22224 17.6505L9.55395 18.9822C9.45791 19.4624 9.45673 19.9598 9.55336 20.4465C10.0395 20.5437 10.5374 20.542 11.0183 20.4465L12.3494 21.7776ZM16.8825 20.1884L16.7246 22.7033L15.5891 23.8388L6.16102 14.4108L7.29652 13.2753L9.81146 13.1173L13.2321 9.69671C15.2845 7.64433 18.5065 7.37328 21.2136 8.78631C22.6266 11.4933 22.3555 14.7154 20.3032 16.7678L16.8825 20.1884ZM15.159 21.0517L15.2591 19.4548L19.1246 15.5893C20.4905 14.2234 20.8099 12.0537 19.9614 10.0385C17.9461 9.18995 15.7771 9.50874 14.4106 10.8752L10.5451 14.7407L8.9482 14.8409L15.159 21.0517ZM15.5891 14.4108C15.2765 14.0982 15.101 13.6743 15.101 13.2322C15.101 12.7902 15.2766 12.3663 15.5891 12.0537C15.9017 11.7412 16.3256 11.5656 16.7676 11.5656C17.2096 11.5656 17.6336 11.7412 17.9461 12.0537C18.2587 12.3663 18.4343 12.7902 18.4343 13.2322C18.4343 13.6743 18.2587 14.0982 17.9461 14.4108C17.6336 14.7233 17.2096 14.8989 16.7676 14.8989C16.3256 14.8989 15.9017 14.7233 15.5891 14.4108Z" fill="black"/>
</g>
<defs>
<clipPath id="clip0_633_230">
<rect width="20" height="20" fill="white" transform="translate(15 0.857422) rotate(45)"/>
</clipPath>
</defs>
</svg>
