<svg width="16" height="16" viewBox="0 0 16 16" fill="none" xmlns="http://www.w3.org/2000/svg">
<path d="M8.00016 14.6673C4.31816 14.6673 1.3335 11.6827 1.3335 8.00065C1.3335 4.31865 4.31816 1.33398 8.00016 1.33398C11.6822 1.33398 14.6668 4.31865 14.6668 8.00065C14.6668 11.6827 11.6822 14.6673 8.00016 14.6673ZM8.00016 13.334C9.41465 13.334 10.7712 12.7721 11.7714 11.7719C12.7716 10.7717 13.3335 9.41514 13.3335 8.00065C13.3335 6.58616 12.7716 5.22961 11.7714 4.22942C10.7712 3.22922 9.41465 2.66732 8.00016 2.66732C6.58567 2.66732 5.22912 3.22922 4.22893 4.22942C3.22873 5.22961 2.66683 6.58616 2.66683 8.00065C2.66683 9.41514 3.22873 10.7717 4.22893 11.7719C5.22912 12.7721 6.58567 13.334 8.00016 13.334V13.334ZM7.3355 10.6673L4.50683 7.83865L5.4495 6.89598L7.3355 8.78198L11.1062 5.01065L12.0495 5.95332L7.3355 10.6673Z" fill="#60D16B"/>
</svg>
